<svg xmlns="http://www.w3.org/2000/svg" viewBox="0 0 24 24">
  <defs>
    <mask id="badge-gap">
      <rect width="24" height="24" fill="#fff"/>
      <circle cx="12.5" cy="16.5" r="5" fill="#000"/>
    </mask>
    <mask id="check-cutout">
      <circle cx="12.5" cy="16.5" r="4.25" fill="#fff"/>
      <path d="m10.35 16.55 1.45 1.45 2.9-3.15" fill="none" stroke="#000" stroke-linecap="round" stroke-linejoin="round" stroke-width="1.75"/>
    </mask>
  </defs>
  <g mask="url(#badge-gap)">
    <path fill="currentColor" d="M3.45 8.1h3l4.15-3.15a.8.8 0 0 1 1.28.64v8.82a.8.8 0 0 1-1.28.64L6.45 11.9h-3a1.35 1.35 0 0 1-1.35-1.35v-1.1A1.35 1.35 0 0 1 3.45 8.1Z"/>
    <g fill="none" stroke="currentColor" stroke-linecap="round" stroke-width="1.65">
      <path d="M14.4 8.1a4.8 4.8 0 0 1 0 6.8"/>
      <path d="M17.05 5.45a8.45 8.45 0 0 1 0 13.1"/>
    </g>
  </g>
  <circle cx="12.5" cy="16.5" r="4.25" fill="currentColor" mask="url(#check-cutout)"/>
</svg>
